<svg width="147" height="147" fill="none" xmlns="http://www.w3.org/2000/svg"><g clip-path="url(#clip0)" fill="#E64D4D"><path d="M78.696 72.747c-.9-.9-2.4-.9-3.3 0-.9.9-.9 2.4 0 3.3.9.9 2.4.9 3.3 0 .9-.9.9-2.4 0-3.3zm29.66-29.71c-4.6-4.5-11.9-4.5-16.5 0s-4.6 11.9 0 16.5 11.9 4.6 16.5 0c4.5-4.5 4.6-11.9 0-16.5zm-3.3 13.2c-2.7 2.7-7.2 2.7-9.9 0s-2.7-7.2 0-9.9 7.2-2.7 9.9 0 2.7 7.2 0 9.9z"/><path d="M134.723 16.691c-.4-.5-1.1-.7-1.7-.7-9.6.6-19 2.6-28 5.8-12 4.2-21.9 10.3-29.6 18-1.7 1.7-3.4 3.6-5 5.5-7.6-4.5-13.7-3.1-17.6-1-8.9 4.7-14.4 17.6-14.4 26.8 0 1.3 1 2.3 2.3 2.3.6 0 1.2-.2 1.6-.7 3.3-3.2 7.8-4.7 12.3-4.1l.8.8c-1.6 3.7-2.8 7.5-3.9 11.3-.3 1.3-.2 2.8.3 4.1-2.3 1.1-4.5 2.6-6.3 4.4-6 6-7.2 20.6-7.3 21.2-.1 1.3.9 2.4 2.1 2.5h.4c.6 0 15.2-1.3 21.2-7.3 1.8-1.8 3.3-4 4.4-6.3 1.3.5 2.7.6 4.1.3 3.9-1 7.6-2.3 11.3-3.8l.8.8c.6 4.5-.9 9.1-4.1 12.3-.9.9-.9 2.4 0 3.3.4.4 1 .7 1.6.7 9.2 0 22.1-5.5 26.9-14.4 2.1-3.9 3.5-10-1-17.6 1.9-1.6 3.7-3.3 5.5-5 7.7-7.7 13.7-17.7 18-29.6 3.2-9 5.2-18.4 5.8-28 .2-.5 0-1.2-.5-1.6zm-91.1 49.4c1.4-7 5.7-14.7 11.4-17.8 3.8-2 8-1.8 12.4.6-3.8 5-7.1 10.3-9.8 16-.3-.4-.8-.6-1.2-.7-4.4-.8-8.9-.2-12.8 1.9zm15.3 36.3c-3.2 3.2-10.8 4.9-15.5 5.6.7-4.8 2.4-12.3 5.6-15.5 1.7-1.7 3.7-3.1 6-3.9l7.8 7.8c-.9 2.3-2.2 4.3-3.9 6zm10.6-7.2c-.7.1-1.5-.1-2-.7l-4.6-4.5-6-6c-.6-.5-.8-1.3-.7-2 .8-3 1.8-6 2.9-8.9l19.3 19.2c-2.9 1.1-5.9 2.1-8.9 2.9zm33.6 1.2c-3.1 5.7-10.7 9.9-17.8 11.4 2.1-3.9 2.7-8.4 1.9-12.8-.1-.5-.4-.9-.7-1.2 5.6-2.7 11-6 16-9.8 2.4 4.4 2.6 8.6.6 12.4zm5.2-23.7c-2.1 2.1-4.4 4.1-6.7 6-5.7 4.6-11.9 8.5-18.6 11.5l-21.9-21.8c3.1-6.6 6.9-12.9 11.5-18.6 1.9-2.3 3.9-4.6 6-6.7 6.9-6.9 15.8-12.4 26.5-16.4l19.5 19.5c-3.9 10.7-9.4 19.6-16.3 26.5zm18.1-31.4l-16.3-16.3c6.6-2 13.5-3.4 20.4-4.1-.7 6.9-2.1 13.8-4.1 20.4z"/><path d="M72.107 112.315c-.9-.9-2.4-.9-3.3 0l-6.6 6.6c-.9.9-.9 2.4 0 3.3.9.9 2.4.9 3.3 0l6.6-6.6c.9-.9.9-2.4 0-3.3zM39.13 79.342c-.9-.9-2.4-.9-3.3 0l-6.6 6.6c-.9.9-.9 2.4 0 3.3.9.9 2.4.9 3.3 0l6.6-6.6c.9-.9.9-2.4 0-3.3zm16.49 36.273c-.9-.9-2.4-.9-3.3 0l-15.8 15.8c-.9.9-.9 2.4 0 3.3.9.9 2.4.9 3.3 0l15.8-15.8c.9-.9.9-2.4 0-3.3zm-18.653 0c-.9-.9-2.4-.9-3.3 0l-15.8 15.8c-.9.9-.9 2.4 0 3.3.9.9 2.4.9 3.3 0l15.8-15.8c.9-.9.9-2.4 0-3.3zm-1.131-19.787c-.9-.9-2.4-.9-3.3 0l-15.8 15.8c-.9.9-.9 2.4 0 3.3.9.9 2.4.9 3.3 0l15.8-15.8c.9-.9.9-2.4 0-3.3zM88.59 62.855c-.9-.9-2.4-.9-3.3 0l-3.3 3.3c-.9.9-.9 2.4 0 3.3.9.9 2.4.9 3.3 0l3.3-3.3c.9-.9.9-2.4 0-3.3z"/></g><defs><clipPath id="clip0"><path fill="#fff" d="M0 0h147v147H0z"/></clipPath></defs></svg>