<svg width="147" height="147" fill="none" xmlns="http://www.w3.org/2000/svg"><g clip-path="url(#clip0)" fill="#E64D4D"><path d="M124.364 100.033c-.719-.308-1.54-.103-2.157.41l-21.563 21.564c-.822.822-.822 2.054 0 2.773.41.41.821.616 1.437.616h21.564a1.95 1.95 0 001.951-1.951v-21.564c-.103-.924-.513-1.643-1.232-1.848zm-17.559 21.358l14.786-14.787v14.787h-14.786z"/><path d="M138.626 68.343c-.719-.308-1.541-.103-2.157.41l-5.955 5.957V34.457a1.95 1.95 0 00-1.951-1.95h-15.198l5.545-5.546 5.34-5.34a6.011 6.011 0 000-8.522l-6.161-6.161a6.012 6.012 0 00-8.523 0l-5.34 5.34-6.366 6.366L84.1 32.506H22.797v-19.51a1.95 1.95 0 00-1.95-1.95c-8.523 0-15.506 6.88-15.506 15.505v84.201c.616 7.804 7.085 13.862 14.89 13.862h60.275l-11.398 11.398c-.821.822-.821 2.054 0 2.773.41.411.822.616 1.438.616h67.258a1.95 1.95 0 001.951-1.951V70.192c.103-.822-.411-1.54-1.129-1.849zm-26.288-58.53a2.107 2.107 0 012.978 0l6.161 6.161a2.106 2.106 0 010 2.978l-3.902 3.902-9.036-9.036 3.799-4.005zm-6.674 6.777l9.036 9.036-3.594 3.594-9.036-9.036 3.594-3.594zm30.189 75.781h-3.594a1.95 1.95 0 00-1.951 1.951 1.95 1.95 0 001.951 1.951h3.594v5.956h-3.594a1.95 1.95 0 00-1.951 1.951 1.95 1.95 0 001.951 1.951h3.594v5.956h-3.594a1.95 1.95 0 00-1.951 1.951 1.95 1.95 0 001.951 1.951h3.594v5.956h-3.594a1.95 1.95 0 00-1.951 1.951 1.95 1.95 0 001.951 1.951h3.594v9.447H75.372l19.92-19.921c.822-.822.822-2.054 0-2.773-.82-.821-2.053-.821-2.772 0l-8.01 8.01H20.334c-5.956 0-10.885-4.724-10.987-10.68 0-.41 0-.718.102-1.129 0-.205 0-.308.103-.514v-.102c0-.206.103-.308.103-.411v-.103c0-.102.103-.308.103-.41 0-.103 0-.103.102-.206 0-.102.103-.205.103-.308 0-.102.103-.205.103-.308 0-.103 0-.103.102-.205 0-.103.103-.308.103-.411v-.103c.103-.205.103-.308.205-.513 1.54-3.286 4.518-5.545 8.112-6.366.206 0 .308-.103.514-.103h.102c.103 0 .309 0 .411-.103h1.232a1.95 1.95 0 001.951-1.95V82.513a1.95 1.95 0 00-1.95-1.951 1.95 1.95 0 00-1.952 1.95v12.425a15.022 15.022 0 00-8.83 4.313c-.308.206-.514.514-.72.822V26.551c0-5.648 4.108-10.474 9.653-11.398v59.454a1.95 1.95 0 001.951 1.951 1.95 1.95 0 001.951-1.951V36.51h57.298L69.211 47.395c-.719.822-.719 2.054 0 2.773.719.719 1.95.719 2.772 0l14.273-14.273 12.939-12.938 9.036 9.036-1.027 1.027-39.739 39.84-9.139-9.036 7.804-7.804c.72-.821.72-2.054 0-2.772-.718-.72-1.95-.72-2.772 0l-9.242 9.241s-.102.103-.102.206v.102l-.103.103v.103c0 .102 0 .102-.103.102-.102 0 0 0 0 .103v.103l-3.902 10.782-2.67 7.393c0 .103-.102.205-.102.308h-6.572a1.95 1.95 0 00-1.951 1.95 1.95 1.95 0 001.95 1.952h54.63a1.95 1.95 0 001.95-1.951 1.95 1.95 0 00-1.95-1.951H56.066l12.014-4.21s.103 0 .103-.103h.103s.102 0 .102-.103l.103-.102c.103 0 .103-.103.205-.103L109.36 36.51h17.148v42.203L98.373 106.85c-.821.821-.821 2.054 0 2.772l.103.103c.821.616 1.951.616 2.67-.103l34.707-34.707v17.456zM63.871 74.812l-5.647 1.951-3.8-3.696 1.951-5.648 7.496 7.393z"/></g><defs><clipPath id="clip0"><path fill="#fff" d="M0 0h147v147H0z"/></clipPath></defs></svg>