<svg width="147" height="147" fill="none" xmlns="http://www.w3.org/2000/svg"><g clip-path="url(#clip0)" fill="#E64D4D"><path d="M134.059 49.226h-20.521l12.234-13.614c1.381-1.58 1.282-3.947-.296-5.427l-5.229-4.735c-1.579-1.381-3.946-1.283-5.426.296l-21.113 23.48h-36.7c-1.086 0-1.875.888-1.875 1.973 0 1.086.888 1.974 1.874 1.974h33.248l-8.583 9.57c-.69.789-.987 1.775-.987 2.762v.394l-2.96 7.992c-.591 1.578.198 3.354 1.776 3.946.79.296 1.677.197 2.467-.099l7.596-3.749h.296c.987-.098 1.974-.493 2.664-1.282l17.364-19.337h23.974c.394 0 .592.296.592.592v74.092c0 .394-.296.592-.592.592h-14.01a1.873 1.873 0 00-1.874 1.874c0 .987.888 1.875 1.874 1.875h14.01a4.42 4.42 0 004.439-4.44v-74.29c.198-2.466-1.776-4.439-4.242-4.439zm-11.148-16.18l-2.269 2.566-5.229-4.736 2.269-2.565 5.229 4.735zm-10.162.691l1.184 1.085-28.216 31.373-1.184-1.085 28.216-31.373zM83.448 69.352l2.269 1.974-3.65 1.775 1.38-3.749zm6.314.494l-1.184-1.086 28.216-31.373 1.184 1.085-28.216 31.374z"/><path d="M111.664 128.35H25.24c-7.794 0-14.108-6.314-14.108-14.108v-.987c0-7.794 6.314-14.108 14.108-14.108h3.946a4.421 4.421 0 004.44-4.44V53.074H48.62a1.979 1.979 0 001.974-1.973 1.979 1.979 0 00-1.974-1.973H33.627v-6.71c0-1.084-.888-1.874-1.875-1.972a1.979 1.979 0 00-1.973 1.973v52.19c0 .394-.296.592-.592.592H25.24c-5.525 0-10.655 2.565-14.108 6.807V33.934c0-7.794 6.314-14.108 14.108-14.108h3.946c.395 0 .592.296.592.592v13.516c0 1.086.888 1.973 1.973 1.973s1.875-.887 1.875-1.973V20.616a4.421 4.421 0 00-4.44-4.44H25.24A17.895 17.895 0 007.284 34.132v80.208c0 9.866 7.991 17.956 17.956 17.956h86.424a1.873 1.873 0 001.874-1.874c.099-1.184-.789-2.072-1.874-2.072z"/><path d="M109.888 69.451c-7.794 0-14.306 6.117-14.799 13.91h-8.88a1.873 1.873 0 00-1.874 1.875v22.001c0 1.085.888 1.874 1.875 1.874h22.001a1.872 1.872 0 001.874-1.874v-8.189c8.189-.098 14.7-6.807 14.503-14.996-.099-8.09-6.61-14.601-14.7-14.601zm-3.651 25.158c-3.354-1.184-6.018-3.947-7.004-7.4h7.004v7.4zm-18.054 10.753V87.209h7.202c1.184 5.624 5.426 9.965 10.951 11.346v6.709l-18.153.098zm21.902-10.161v-9.866a1.873 1.873 0 00-1.874-1.875h-9.274a10.857 10.857 0 0111.74-9.964 10.856 10.856 0 019.964 11.74c-.394 5.525-4.932 9.866-10.556 9.965z"/><path d="M116.991 100.43c-1.085 0-1.874.888-1.874 1.973s.888 1.874 1.874 1.874h4.243c1.085 0 1.973-.888 1.973-1.874a1.979 1.979 0 00-1.973-1.973h-4.243zm6.216 6.807a1.874 1.874 0 00-1.875-1.875h-4.242a1.874 1.874 0 00-1.875 1.875c0 1.085.888 1.973 1.875 1.973h4.242c.987 0 1.875-.888 1.875-1.973zM42.406 68.76h3.058a1.873 1.873 0 001.875-1.874c0-.987-.888-1.874-1.875-1.874h-3.058a1.873 1.873 0 00-1.874 1.874c0 .987.789 1.874 1.874 1.874zm0 5.525h14.799a1.873 1.873 0 001.874-1.874c0-.987-.79-1.973-1.874-1.973H42.406a1.873 1.873 0 00-1.874 1.874c0 .987.789 1.973 1.874 1.973zm11.74-5.525h3.059a1.873 1.873 0 001.874-1.874c0-.987-.888-1.874-1.874-1.874h-3.059a1.873 1.873 0 00-1.874 1.874c0 .987.789 1.874 1.874 1.874zm14.898-3.847h-3.059a1.873 1.873 0 00-1.874 1.874c0 .987.888 1.875 1.874 1.875h3.059a1.873 1.873 0 001.874-1.875c0-.986-.888-1.874-1.874-1.874zM42.406 79.909h14.799a1.873 1.873 0 001.874-1.875c0-.986-.888-1.874-1.874-1.874H42.406a1.873 1.873 0 00-1.874 1.874c0 .987.789 1.875 1.874 1.875zm-1.973 3.651c0 1.084.888 1.874 1.874 1.874h23.48c1.086 0 1.875-.888 1.875-1.974a1.873 1.873 0 00-1.874-1.874H42.406a1.979 1.979 0 00-1.973 1.973zm30.485 5.524a1.873 1.873 0 00-1.874-1.874H42.406c-1.085 0-1.874.887-1.874 1.973 0 1.085.887 1.874 1.874 1.874h26.638c.986 0 1.874-.888 1.874-1.973zm-21.31 8.978a1.873 1.873 0 00-1.874-1.875h-5.328a1.873 1.873 0 00-1.874 1.875v5.327c0 1.086.887 1.875 1.874 1.875h5.328a1.873 1.873 0 001.874-1.875v-5.327zm-3.848 3.354h-1.48v-1.48h1.48v1.48zm16.575-3.354a1.873 1.873 0 00-1.875-1.875h-5.327a1.873 1.873 0 00-1.875 1.875v5.327c0 1.086.888 1.875 1.875 1.875h5.327a1.873 1.873 0 001.875-1.875v-5.327zm-3.848 3.354h-1.48v-1.48h1.48v1.48zm16.575-3.354a1.873 1.873 0 00-1.875-1.875H67.86a1.873 1.873 0 00-1.875 1.875v5.327c0 1.086.888 1.875 1.875 1.875h5.327a1.873 1.873 0 001.875-1.875v-5.327zm-3.848 3.354h-1.48v-1.48h1.48v1.48zm-23.481 8.189h-5.327a1.873 1.873 0 00-1.874 1.874v5.328c0 1.085.887 1.874 1.874 1.874h5.328a1.873 1.873 0 001.874-1.874v-5.328c0-.986-.888-1.874-1.874-1.874zm-1.973 5.327h-1.48v-1.48h1.48v1.48zm14.602-5.327h-5.328a1.873 1.873 0 00-1.874 1.874v5.328c0 1.085.888 1.874 1.874 1.874h5.328a1.873 1.873 0 001.874-1.874v-5.328c.1-.986-.789-1.874-1.874-1.874zm-1.875 5.327h-1.48v-1.48h1.48v1.48zm9.373 3.848h5.327a1.873 1.873 0 001.875-1.875v-5.327a1.874 1.874 0 00-1.875-1.875H67.86a1.873 1.873 0 00-1.875 1.875v5.327c-.098.987.79 1.875 1.875 1.875zm1.874-5.328h1.48v1.48h-1.48v-1.48z"/></g><defs><clipPath id="clip0"><path fill="#fff" d="M0 0h147v147H0z"/></clipPath></defs></svg>