<svg width="147" height="147" fill="none" xmlns="http://www.w3.org/2000/svg"><g clip-path="url(#clip0)"><g clip-path="url(#clip1)" fill="#E64D4D"><path d="M51.112 139.95c-1.65-.713-3.462-1.176-4.912-2.139-3.112-2.139-4.454-5.304-4.462-9.04v-16.484l-1.477 1.889c1.677 3.059 1.47 4.399-1.271 7.13l-16.648 16.562c-2.599 2.596-4.94 2.603-7.532 0-2.056-2.046-4.12-4.092-6.16-6.153-2.2-2.224-2.2-4.741 0-6.965a5242.607 5242.607 0 0117.19-17.176c2.427-2.424 4.155-2.638 6.968-.906l8.052-8.228c-1.256-3.001-2.912-6.031-3.826-9.268-2.413-8.556-1.078-16.706 3.812-24.192.583-.836.89-1.833.878-2.852-.05-4.763 0-9.525 0-14.26v-.905c.065-1.326.814-2.139 1.95-2.139a1.942 1.942 0 011.934 2.139v12.313c1.57-1.12 3.041-2.089 4.398-3.194.328-.27.385-.998.385-1.519V22.615c0-2.011.671-2.653 2.663-2.653h16.42v-4.37c-.415 0-.829-.057-1.243-.057H53.147c-4.698 0-7.532 2.852-7.546 7.507v15.686a1.937 1.937 0 01-1.878 2.003h-.071a1.922 1.922 0 01-1.935-1.903v-.093c-.043-.948 0-1.904 0-2.852V23.05c0-6.801 4.619-11.371 11.422-11.407h16.385V9.817c0-2.19.606-2.852 2.762-2.852h37.188c1.856 0 2.505.641 2.562 2.474v2.231h16.741c5.412.043 9.474 3.216 10.795 8.385.192.713.285 1.504.428 2.26v42.066c-.678 1.654-1.335 2.14-2.449 1.925-1.113-.214-1.549-.977-1.563-2.752V23.05c0-4.712-2.856-7.479-7.56-7.5h-16.27v4.428h16.048c2.435 0 3.006.556 3.006 2.959v105.821c0 2.324-.571 2.894-2.934 2.894H53.411c-2.349 0-2.949-.577-2.949-2.894v-21.033c0-.806-1.427-2.182-2.099-2.047-.67.136-2.69 2.752-2.69 3.565v19.479c0 4.499 2.898 7.358 7.424 7.372h10.387c1.1 0 2.142.107 2.57 1.305.428 1.198-.293 1.939-1.142 2.602l-13.8-.05zm3.327-12.32h72.818V23.962h-15.135v1.27c0 3.13-.385 3.493-3.527 3.493H72.022c-1.742-.043-2.434-.713-2.463-2.467v-2.346H54.453v29.946c.493-.15.864-.25 1.22-.371 8.41-2.795 16.528-2.189 24.36 2.039.607.31 1.28.472 1.962.47 10.057.029 20.111.029 30.163 0 .39-.01.781.002 1.171.036a1.894 1.894 0 011.723 1.782 1.892 1.892 0 01-1.523 1.955 7.868 7.868 0 01-1.543.127H86.55c1.85 2.738 3.627 5.433 5.483 8.064a1.786 1.786 0 001.3.507h20.802c.477-.02.954-.004 1.428.05a1.761 1.761 0 011.628 1.733 1.724 1.724 0 01-1.349 1.953 5.87 5.87 0 01-1.542.156H95.188c-.407 0-.814.036-1.335.065l.572 2.039h8.902a1.965 1.965 0 012.049 1.875v.05a1.99 1.99 0 01-2.035 1.94h-8.295v7.593h19.132a7.56 7.56 0 011.428.092 1.902 1.902 0 011.598 1.956 1.893 1.893 0 01-1.762 1.809c-.433.022-.867.022-1.3 0H95.667c-1.978 0-1.992 0-2.235 2.139h5.447c1.599 0 3.206 0 4.805.07a1.536 1.536 0 011.57 1.677 3.088 3.088 0 01-.942 1.924c-.364.343-1.142.307-1.735.314-3.248 0-6.503.057-9.752 0a2.259 2.259 0 00-2.291 1.255 29.574 29.574 0 01-13.869 11.586 29.62 29.62 0 01-18.028 1.362c-1.428-.349-2.792-.799-4.284-1.219l.086 18.744zm36.809-46.237a25.644 25.644 0 00-4.304-14.268 25.693 25.693 0 00-11.516-9.476 25.731 25.731 0 00-28.018 5.51 25.638 25.638 0 00-5.626 27.961 25.674 25.674 0 009.443 11.537 25.722 25.722 0 0014.27 4.354h.179a25.667 25.667 0 0018.087-7.531 25.6 25.6 0 007.485-18.087zM73.52 24.746h34.589V10.957H73.521v13.79zM30.2 124.564c2.207-2.217 4.484-4.513 6.776-6.802.607-.606.314-1.048-.172-1.525a501.534 501.534 0 01-4.511-4.492c-2.535-2.546-2.528-2.546-5.112 0l-.55.549-4.347 4.335 7.917 7.935zm-14.477-1.426c-1.385 1.426-2.856 2.895-4.284 4.357a.927.927 0 00-.405.77.934.934 0 00.405.77c2.142 2.139 4.284 4.277 6.426 6.381a1.323 1.323 0 001.285.057c1.584-1.426 3.084-2.973 4.504-4.378l-7.931-7.957zm20.175-13.354l1.05 1.127 8.03-7.979-.977-1.141-8.103 7.993zm-8.639 18.103l-8.252-8.271c.05.464 0 .906.143 1.084a439.187 439.187 0 006.967 6.959c.165.228.607.142 1.143.228z"/><path d="M104.541 118.618H93.118c-2.141 0-2.741-.614-2.748-2.674v-9.982c0-1.818.678-2.538 2.498-2.545h23.274c1.991 0 2.612.713 2.62 2.681v9.739c0 2.189-.6 2.795-2.756 2.795l-11.465-.014zm-10.224-3.993h20.49v-7.223H94.325l-.008 7.223zM90.77 42.328H73.356a5.32 5.32 0 01-1.292-.078 1.913 1.913 0 01-1.494-1.864 1.91 1.91 0 011.494-1.865 5.93 5.93 0 011.428-.086h34.546c.347-.017.695-.017 1.042 0a1.926 1.926 0 011.885 1.897 1.893 1.893 0 01-.526 1.354 1.91 1.91 0 01-1.331.585c-.778.065-1.556 0-2.341 0H90.769v.057zm.263 5.512h-6.618c-1.549 0-2.391-.713-2.37-1.961.022-1.248.828-1.904 2.306-1.918 4.412-.033 8.824-.033 13.236 0 1.492 0 2.413.827 2.391 1.99-.02 1.161-.92 1.889-2.455 1.903h-6.49v-.014zm21.482 30.544c-.864 0-1.728.036-2.592 0a1.982 1.982 0 01-1.882-1.15 1.982 1.982 0 01-.181-.754 1.956 1.956 0 011.949-1.954h.05c1.771-.056 3.57-.05 5.311 0a1.908 1.908 0 012.021 1.776v.135c0 1.141-.785 1.897-2.099 1.968h-2.57l-.007-.021zm.15 13.718c.949 0 1.899-.057 2.855 0a1.703 1.703 0 011.557 1.067c.083.207.124.428.121.651v.064a1.677 1.677 0 01-1.428 1.911h-.25a65.974 65.974 0 01-5.939 0 1.711 1.711 0 01-1.282-.573 1.712 1.712 0 01-.417-1.338 1.738 1.738 0 01.453-1.266 1.751 1.751 0 011.217-.573h.121c.986-.05 1.985 0 2.97 0l.022.057zm-47.118-32.42a21.73 21.73 0 0112.062 3.654 21.688 21.688 0 017.995 9.73 21.656 21.656 0 01-4.706 23.63 21.732 21.732 0 01-23.66 4.7 21.707 21.707 0 01-9.742-7.986 21.662 21.662 0 01-3.659-12.046v-.057a21.739 21.739 0 016.4-15.274 21.795 21.795 0 0115.31-6.35zm0 3.9a17.821 17.821 0 00-9.884 3.02 17.787 17.787 0 00-6.539 7.997 17.76 17.76 0 003.907 19.369 17.826 17.826 0 0019.413 3.808 17.8 17.8 0 007.974-6.568 17.765 17.765 0 002.977-9.887 17.863 17.863 0 00-5.272-12.534 17.91 17.91 0 00-12.576-5.205zm14.721-50.393a4.63 4.63 0 013.28 1.297 4.617 4.617 0 011.41 3.23 4.672 4.672 0 01-2.785 4.392 4.688 4.688 0 01-1.784.4 4.758 4.758 0 01-3.323-1.381 4.745 4.745 0 01-1.403-3.311 4.688 4.688 0 011.365-3.244 4.7 4.7 0 013.24-1.383zm.135 3.636c-.37.42-.77.713-.714.884a1.188 1.188 0 00.629.77c.128.057.657-.335.67-.549.015-.214-.313-.592-.592-1.105h.007zm16.556 2.93h-5.84c-1.37 0-2.184-.713-2.242-1.84-.057-1.126.807-2.01 2.206-2.024a531.22 531.22 0 0111.68 0 1.92 1.92 0 012.142 1.932c0 1.112-.829 1.918-2.264 1.94h-5.71l.028-.008z"/></g></g><defs><clipPath id="clip0"><path fill="#fff" d="M0 0h147v147H0z"/></clipPath><clipPath id="clip1"><path fill="#fff" transform="translate(7 7)" d="M0 0h133v133H0z"/></clipPath></defs></svg>