<svg width="147" height="147" viewBox="0 0 147 147" fill="none" xmlns="http://www.w3.org/2000/svg">
<g clip-path="url(#clip0)">
<path d="M78.6959 72.747C77.7959 71.847 76.2959 71.847 75.3959 72.747C74.4959 73.647 74.4959 75.147 75.3959 76.047C76.2959 76.947 77.7959 76.947 78.6959 76.047C79.5959 75.147 79.5959 73.647 78.6959 72.747Z" fill="#E64D4D"/>
<path d="M108.356 43.037C103.756 38.537 96.456 38.537 91.856 43.037C87.256 47.537 87.256 54.937 91.856 59.537C96.456 64.137 103.756 64.137 108.356 59.537C112.856 55.037 112.956 47.637 108.356 43.037ZM105.056 56.237C102.356 58.937 97.856 58.937 95.156 56.237C92.456 53.537 92.456 49.037 95.156 46.337C97.856 43.637 102.356 43.637 105.056 46.337C107.756 49.037 107.756 53.537 105.056 56.237Z" fill="#E64D4D"/>
<path d="M134.723 16.691C134.323 16.191 133.623 15.991 133.023 15.991C123.423 16.591 114.023 18.591 105.023 21.791C93.023 25.991 83.123 32.091 75.423 39.791C73.723 41.491 72.023 43.391 70.423 45.291C62.823 40.791 56.723 42.191 52.823 44.291C43.923 48.991 38.423 61.891 38.423 71.091C38.423 72.391 39.423 73.391 40.723 73.391C41.323 73.391 41.923 73.191 42.323 72.691C45.623 69.491 50.123 67.991 54.623 68.591L55.423 69.391C53.823 73.091 52.623 76.891 51.523 80.691C51.223 81.991 51.323 83.491 51.823 84.791C49.523 85.891 47.323 87.391 45.523 89.191C39.523 95.191 38.323 109.791 38.223 110.391C38.123 111.691 39.123 112.791 40.323 112.891C40.423 112.891 40.423 112.891 40.523 112.891C40.623 112.891 40.623 112.891 40.723 112.891C41.323 112.891 55.923 111.591 61.923 105.591C63.723 103.791 65.223 101.591 66.323 99.291C67.623 99.791 69.023 99.891 70.423 99.591C74.323 98.591 78.023 97.291 81.723 95.791L82.523 96.591C83.123 101.091 81.623 105.691 78.423 108.891C77.523 109.791 77.523 111.291 78.423 112.191C78.823 112.591 79.423 112.891 80.023 112.891C89.223 112.891 102.123 107.391 106.923 98.491C109.023 94.591 110.423 88.491 105.923 80.891C107.823 79.291 109.623 77.591 111.423 75.891C119.123 68.191 125.123 58.191 129.423 46.291C132.623 37.291 134.623 27.891 135.223 18.291C135.423 17.791 135.223 17.091 134.723 16.691ZM43.623 66.091C45.023 59.091 49.323 51.391 55.023 48.291C58.823 46.291 63.023 46.491 67.423 48.891C63.623 53.891 60.323 59.191 57.623 64.891C57.323 64.491 56.823 64.291 56.423 64.191C52.023 63.391 47.523 63.991 43.623 66.091ZM58.923 102.391C55.723 105.591 48.123 107.291 43.423 107.991C44.123 103.191 45.823 95.691 49.023 92.491C50.723 90.791 52.723 89.391 55.023 88.591L62.823 96.391C61.923 98.691 60.623 100.691 58.923 102.391ZM69.523 95.191C68.823 95.291 68.023 95.091 67.523 94.491L62.923 89.991L56.923 83.991C56.323 83.491 56.123 82.691 56.223 81.991C57.023 78.991 58.023 75.991 59.123 73.091L78.423 92.291C75.523 93.391 72.523 94.391 69.523 95.191ZM103.123 96.391C100.023 102.091 92.423 106.291 85.323 107.791C87.423 103.891 88.023 99.391 87.223 94.991C87.123 94.491 86.823 94.091 86.523 93.791C92.123 91.091 97.523 87.791 102.523 83.991C104.923 88.391 105.123 92.591 103.123 96.391ZM108.323 72.691C106.223 74.791 103.923 76.791 101.623 78.691C95.923 83.291 89.723 87.191 83.023 90.191L61.123 68.391C64.223 61.791 68.023 55.491 72.623 49.791C74.523 47.491 76.523 45.191 78.623 43.091C85.523 36.191 94.423 30.691 105.123 26.691L124.623 46.191C120.723 56.891 115.223 65.791 108.323 72.691ZM126.423 41.291L110.123 24.991C116.723 22.991 123.623 21.591 130.523 20.891C129.823 27.791 128.423 34.691 126.423 41.291Z" fill="#E64D4D"/>
<path d="M72.1072 112.315C71.2072 111.415 69.7072 111.415 68.8072 112.315L62.2072 118.915C61.3072 119.815 61.3072 121.315 62.2072 122.215C63.1072 123.115 64.6072 123.115 65.5072 122.215L72.1072 115.615C73.0072 114.715 73.0072 113.215 72.1072 112.315Z" fill="#E64D4D"/>
<path d="M39.1309 79.342C38.2309 78.442 36.7309 78.442 35.8309 79.342L29.2309 85.942C28.3309 86.842 28.3309 88.342 29.2309 89.242C30.1309 90.142 31.6309 90.142 32.5309 89.242L39.1309 82.642C40.0309 81.742 40.0309 80.242 39.1309 79.342Z" fill="#E64D4D"/>
<path d="M55.62 115.615C54.72 114.715 53.22 114.715 52.32 115.615L36.52 131.415C35.62 132.315 35.62 133.815 36.52 134.715C37.42 135.615 38.92 135.615 39.82 134.715L55.62 118.915C56.52 118.015 56.52 116.515 55.62 115.615Z" fill="#E64D4D"/>
<path d="M36.9669 115.615C36.0669 114.715 34.5669 114.715 33.6669 115.615L17.8669 131.415C16.9669 132.315 16.9669 133.815 17.8669 134.715C18.7669 135.615 20.2669 135.615 21.1669 134.715L36.9669 118.915C37.8669 118.015 37.8669 116.515 36.9669 115.615Z" fill="#E64D4D"/>
<path d="M35.836 95.828C34.936 94.928 33.436 94.928 32.536 95.828L16.736 111.628C15.836 112.528 15.836 114.028 16.736 114.928C17.636 115.828 19.136 115.828 20.036 114.928L35.836 99.128C36.736 98.228 36.736 96.728 35.836 95.828Z" fill="#E64D4D"/>
<path d="M88.5909 62.855C87.6909 61.955 86.1909 61.955 85.2909 62.855L81.9909 66.155C81.0909 67.055 81.0909 68.555 81.9909 69.455C82.8909 70.355 84.3909 70.355 85.2909 69.455L88.5909 66.155C89.4909 65.255 89.4909 63.755 88.5909 62.855Z" fill="#E64D4D"/>
</g>
<defs>
<clipPath id="clip0">
<rect width="147" height="147" fill="white"/>
</clipPath>
</defs>
</svg>
