<svg width="147" height="147" viewBox="0 0 147 147" fill="none" xmlns="http://www.w3.org/2000/svg">
<g clip-path="url(#clip0)">
<path d="M124.364 100.033C123.645 99.7246 122.824 99.93 122.207 100.443L100.644 122.007C99.8222 122.829 99.8222 124.061 100.644 124.78C101.054 125.19 101.465 125.396 102.081 125.396H123.645C124.775 125.396 125.596 124.472 125.596 123.445V101.881C125.493 100.957 125.083 100.238 124.364 100.033ZM106.805 121.391L121.591 106.604V121.391H106.805Z" fill="#E64D4D"/>
<path d="M138.626 68.3432C137.907 68.0351 137.085 68.2405 136.469 68.7539L130.514 74.7096V34.4573C130.514 33.3277 129.589 32.5063 128.563 32.5063H113.365L118.91 26.9613L124.25 21.6217C126.612 19.26 126.612 15.4606 124.25 13.0989L118.089 6.93781C115.727 4.57607 111.928 4.57607 109.566 6.93781L104.226 12.2774L97.8598 18.6439L84.1001 32.5063H22.7974V12.9962C22.7974 11.8667 21.8733 11.0452 20.8464 11.0452C12.3236 11.0452 5.34106 17.9251 5.34106 26.5506V110.341C5.34106 110.444 5.34106 110.649 5.34106 110.752C5.95717 118.556 12.4263 124.614 20.2303 124.614H80.5062L69.1082 136.012C68.2867 136.834 68.2867 138.066 69.1082 138.785C69.5189 139.196 69.9297 139.401 70.5458 139.401H137.804C138.934 139.401 139.755 138.477 139.755 137.45V70.1915C139.858 69.37 139.344 68.6512 138.626 68.3432ZM112.338 9.81298C113.16 8.9915 114.495 8.9915 115.316 9.81298L121.477 15.9741C122.299 16.7955 122.299 18.1304 121.477 18.9519L117.575 22.8539L108.539 13.8177L112.338 9.81298ZM105.664 16.5902L114.7 25.6264L111.106 29.2204L102.07 20.1841L105.664 16.5902ZM135.853 92.3714H132.259C131.13 92.3714 130.308 93.2955 130.308 94.3224C130.308 95.4519 131.232 96.2734 132.259 96.2734H135.853V102.229H132.259C131.13 102.229 130.308 103.153 130.308 104.18C130.308 105.31 131.232 106.131 132.259 106.131H135.853V112.087H132.259C131.13 112.087 130.308 113.011 130.308 114.038C130.308 115.167 131.232 115.989 132.259 115.989H135.853V121.945H132.259C131.13 121.945 130.308 122.869 130.308 123.896C130.308 125.025 131.232 125.847 132.259 125.847H135.853V135.294H75.3719L95.2927 115.373C96.1142 114.551 96.1142 113.319 95.2927 112.6C94.4713 111.779 93.239 111.779 92.5203 112.6L84.5109 120.61H20.333C14.3773 120.61 9.44845 115.886 9.34576 109.93C9.34576 109.52 9.34576 109.212 9.44845 108.801C9.44845 108.596 9.44845 108.493 9.55113 108.287V108.185C9.55113 107.979 9.65382 107.877 9.65382 107.774V107.671C9.65382 107.569 9.7565 107.363 9.7565 107.261C9.7565 107.158 9.7565 107.158 9.85919 107.055C9.85919 106.953 9.96187 106.85 9.96187 106.747C9.96187 106.645 10.0646 106.542 10.0646 106.439C10.0646 106.336 10.0646 106.336 10.1672 106.234C10.1672 106.131 10.2699 105.926 10.2699 105.823V105.72C10.3726 105.515 10.3726 105.412 10.4753 105.207C12.0156 101.921 14.9934 99.662 18.5874 98.8405C18.7927 98.8405 18.8954 98.7378 19.1008 98.7378H19.2035C19.3062 98.7378 19.5115 98.7378 19.6142 98.6351H19.7169C19.8196 98.6351 20.025 98.6351 20.1276 98.6351H20.2303C20.4357 98.6351 20.6411 98.6351 20.8464 98.6351C21.976 98.6351 22.7974 97.711 22.7974 96.6841V82.5137C22.7974 81.3841 21.8733 80.5627 20.8464 80.5627C19.7169 80.5627 18.8954 81.4868 18.8954 82.5137V94.9385C15.5068 95.3492 12.4263 96.8895 10.0646 99.2512C9.7565 99.4566 9.55113 99.7647 9.34576 100.073V26.5506C9.34576 20.9029 13.4531 16.0767 18.9981 15.1526V74.6069C18.9981 75.7365 19.9223 76.558 20.9491 76.558C22.0786 76.558 22.9001 75.6338 22.9001 74.6069V36.511H80.1981L69.2109 47.3955C68.4921 48.217 68.4921 49.4492 69.2109 50.168C69.9297 50.8868 71.1619 50.8868 71.9833 50.168L86.2565 35.8949L99.1948 22.9566L108.231 31.9928L107.204 33.0197L67.4652 72.8613L58.3263 63.8251L66.1303 56.021C66.8491 55.1996 66.8491 53.9673 66.1303 53.2486C65.4115 52.5298 64.1793 52.5298 63.3578 53.2486L54.1162 62.4902C54.1162 62.4902 54.0135 62.5929 54.0135 62.6955C54.0135 62.6955 54.0135 62.6955 54.0135 62.7982L53.9109 62.9009C53.9109 62.9009 53.9109 62.9009 53.9109 63.0036C53.9109 63.1063 53.9109 63.1063 53.8082 63.1063C53.7055 63.1063 53.8082 63.1063 53.8082 63.209C53.8082 63.3116 53.8082 63.3116 53.8082 63.3116L49.9062 74.0935L47.2364 81.4868C47.2364 81.5895 47.1337 81.6922 47.1337 81.7949H40.5619C39.4323 81.7949 38.6109 82.719 38.6109 83.7459C38.6109 84.8754 39.535 85.6969 40.5619 85.6969H95.1901C96.3196 85.6969 97.1411 84.7727 97.1411 83.7459C97.1411 82.6163 96.2169 81.7949 95.1901 81.7949H56.0672L68.0813 77.5848C68.0813 77.5848 68.184 77.5848 68.184 77.4821H68.2867C68.2867 77.4821 68.3894 77.4821 68.3894 77.3794L68.4921 77.2767C68.5948 77.2767 68.5948 77.1741 68.6974 77.1741L109.361 36.511H126.509V78.7143L98.3733 106.85C97.5518 107.671 97.5518 108.904 98.3733 109.622L98.476 109.725C99.2974 110.341 100.427 110.341 101.146 109.622L135.853 74.915V92.3714ZM63.8713 74.8123L58.2236 76.7633L54.4243 73.0667L56.3753 67.419L63.8713 74.8123Z" fill="#E64D4D"/>
</g>
<defs>
<clipPath id="clip0">
<rect width="147" height="147" fill="white"/>
</clipPath>
</defs>
</svg>
