<svg width="147" height="147" viewBox="0 0 147 147" fill="none" xmlns="http://www.w3.org/2000/svg">
<g clip-path="url(#clip0)">
<path d="M134.059 49.2262H113.538L125.772 35.6115C127.153 34.0329 127.054 31.6652 125.476 30.1853L120.247 25.4497C118.668 24.0685 116.301 24.1672 114.821 25.7457L93.708 49.2262H57.0073C55.9221 49.2262 55.1328 50.1142 55.1328 51.1994C55.1328 52.2846 56.0207 53.1725 57.0073 53.1725H90.255L81.6717 62.7423C80.9811 63.5316 80.6852 64.5182 80.6852 65.5048C80.6852 65.6034 80.6852 65.7021 80.6852 65.8994L77.7254 73.8907C77.1335 75.4692 77.9227 77.245 79.5013 77.837C80.2905 78.133 81.1784 78.0343 81.9677 77.7383L89.5644 73.9893H89.663C89.7617 73.9893 89.7617 73.9893 89.8603 73.9893C90.8469 73.8907 91.8335 73.496 92.5241 72.7068L109.888 53.3699H133.862C134.256 53.3699 134.454 53.6658 134.454 53.9618V128.054C134.454 128.448 134.158 128.646 133.862 128.646H119.852C118.767 128.646 117.978 129.534 117.978 130.52C117.978 131.507 118.866 132.395 119.852 132.395H133.862C136.328 132.395 138.301 130.422 138.301 127.955V53.6658C138.499 51.1994 136.525 49.2262 134.059 49.2262ZM122.911 33.0464L120.642 35.6115L115.413 30.8759L117.682 28.3108L122.911 33.0464ZM112.749 33.737L113.933 34.8222L85.7167 66.1954L84.5328 65.1101L112.749 33.737ZM83.4476 69.3524L85.7167 71.3256L82.0664 73.1014L83.4476 69.3524ZM89.7617 69.8457L88.5778 68.7605L116.794 37.3873L117.978 38.4725L89.7617 69.8457Z" fill="#E64D4D"/>
<path d="M111.664 128.35H25.2396C17.4457 128.35 11.1316 122.036 11.1316 114.242V113.255C11.1316 105.461 17.4457 99.147 25.2396 99.147H29.1859C31.6524 99.147 33.6255 97.1739 33.6255 94.7074V53.0739H48.6215C49.7068 53.0739 50.5947 52.186 50.5947 51.1007C50.5947 50.0155 49.7068 49.1276 48.6215 49.1276H33.6255V42.4189C33.6255 41.3336 32.7376 40.5444 31.751 40.4457C30.6658 40.4457 29.7779 41.3336 29.7779 42.4189V94.6088C29.7779 95.0034 29.4819 95.2007 29.1859 95.2007H25.2396C19.7148 95.2007 14.5846 97.7658 11.1316 102.008V33.9343C11.1316 26.1403 17.4457 19.8262 25.2396 19.8262H29.1859C29.5806 19.8262 29.7779 20.1222 29.7779 20.4182V33.9343C29.7779 35.0195 30.6658 35.9074 31.751 35.9074C32.8363 35.9074 33.6255 35.0195 33.6255 33.9343V20.6155C33.6255 18.1491 31.6524 16.1759 29.1859 16.1759H25.2396C15.2752 16.1759 7.28394 24.1672 7.28394 34.1316V114.34C7.28394 124.206 15.2752 132.296 25.2396 132.296H111.664C112.749 132.296 113.538 131.408 113.538 130.422C113.637 129.238 112.749 128.35 111.664 128.35Z" fill="#E64D4D"/>
<path d="M109.888 69.451C102.094 69.451 95.5824 75.5678 95.0891 83.3618H86.2099C85.1247 83.3618 84.3354 84.2497 84.3354 85.2363V107.237C84.3354 108.322 85.2234 109.111 86.2099 109.111H108.211C109.296 109.111 110.085 108.224 110.085 107.237V99.0484C118.274 98.9497 124.785 92.241 124.588 84.0524C124.489 75.9625 117.978 69.451 109.888 69.451ZM106.237 94.6088C102.883 93.4249 100.219 90.6625 99.2328 87.2094H106.237V94.6088ZM88.1831 105.362V87.2094H95.3851C96.569 92.8329 100.811 97.1739 106.336 98.5551V105.264L88.1831 105.362ZM110.085 95.2007V85.3349C110.085 84.2497 109.197 83.4604 108.211 83.4604H98.9368C99.4301 77.4423 104.659 73.0027 110.677 73.496C116.695 73.9893 121.135 79.2182 120.641 85.2363C120.247 90.7611 115.709 95.1021 110.085 95.2007Z" fill="#E64D4D"/>
<path d="M116.991 100.43C115.906 100.43 115.117 101.318 115.117 102.403C115.117 103.488 116.005 104.277 116.991 104.277H121.234C122.319 104.277 123.207 103.389 123.207 102.403C123.207 101.318 122.319 100.43 121.234 100.43H116.991Z" fill="#E64D4D"/>
<path d="M123.207 107.237C123.207 106.152 122.319 105.362 121.332 105.362H117.09C116.005 105.362 115.215 106.25 115.215 107.237C115.215 108.322 116.103 109.21 117.09 109.21H121.332C122.319 109.21 123.207 108.322 123.207 107.237Z" fill="#E64D4D"/>
<path d="M42.406 68.7605H45.4644C46.5496 68.7605 47.3389 67.8725 47.3389 66.886C47.3389 65.8994 46.451 65.0115 45.4644 65.0115H42.406C41.3208 65.0115 40.5315 65.8994 40.5315 66.886C40.5315 67.8725 41.3208 68.7605 42.406 68.7605Z" fill="#E64D4D"/>
<path d="M42.406 74.2853H57.2046C58.2899 74.2853 59.0791 73.3974 59.0791 72.4108C59.0791 71.4242 58.2899 70.4377 57.2046 70.4377H42.406C41.3208 70.4377 40.5315 71.3256 40.5315 72.3121C40.5315 73.2987 41.3208 74.2853 42.406 74.2853Z" fill="#E64D4D"/>
<path d="M54.1462 68.7605H57.2046C58.2899 68.7605 59.0791 67.8725 59.0791 66.886C59.0791 65.8994 58.1912 65.0115 57.2046 65.0115H54.1462C53.061 65.0115 52.2717 65.8994 52.2717 66.886C52.2717 67.8725 53.061 68.7605 54.1462 68.7605Z" fill="#E64D4D"/>
<path d="M69.0437 64.9128H65.9853C64.9001 64.9128 64.1108 65.8007 64.1108 66.7873C64.1108 67.7739 64.9988 68.6618 65.9853 68.6618H69.0437C70.129 68.6618 70.9182 67.7739 70.9182 66.7873C70.9182 65.8007 70.0303 64.9128 69.0437 64.9128Z" fill="#E64D4D"/>
<path d="M42.406 79.9088H57.2046C58.2899 79.9088 59.0791 79.0209 59.0791 78.0343C59.0791 77.0477 58.1912 76.1598 57.2046 76.1598H42.406C41.3208 76.1598 40.5315 77.0477 40.5315 78.0343C40.5315 79.0209 41.3208 79.9088 42.406 79.9088Z" fill="#E64D4D"/>
<path d="M40.4329 83.5591C40.4329 84.6444 41.3208 85.4336 42.3074 85.4336H65.7879C66.8731 85.4336 67.6624 84.5457 67.6624 83.4605C67.6624 82.3752 66.7745 81.586 65.7879 81.586H42.406C41.3208 81.586 40.4329 82.4739 40.4329 83.5591Z" fill="#E64D4D"/>
<path d="M70.9181 89.084C70.9181 87.9987 70.0301 87.2095 69.0436 87.2095H42.406C41.3208 87.2095 40.5315 88.0974 40.5315 89.1826C40.5315 90.2679 41.4194 91.0571 42.406 91.0571H69.0436C70.0301 91.0571 70.9181 90.1692 70.9181 89.084Z" fill="#E64D4D"/>
<path d="M49.608 98.0618C49.608 96.9766 48.7201 96.1873 47.7335 96.1873H42.406C41.3208 96.1873 40.5315 97.0752 40.5315 98.0618V103.389C40.5315 104.475 41.4194 105.264 42.406 105.264H47.7335C48.8187 105.264 49.608 104.376 49.608 103.389V98.0618ZM45.7603 101.416H44.2805V99.9363H45.7603V101.416Z" fill="#E64D4D"/>
<path d="M62.3348 98.0618C62.3348 96.9766 61.4469 96.1873 60.4603 96.1873H55.1328C54.0476 96.1873 53.2583 97.0752 53.2583 98.0618V103.389C53.2583 104.475 54.1462 105.264 55.1328 105.264H60.4603C61.5455 105.264 62.3348 104.376 62.3348 103.389V98.0618ZM58.4872 101.416H57.0073V99.9363H58.4872V101.416Z" fill="#E64D4D"/>
<path d="M75.0619 98.0618C75.0619 96.9766 74.174 96.1873 73.1874 96.1873H67.8599C66.7746 96.1873 65.9854 97.0752 65.9854 98.0618V103.389C65.9854 104.475 66.8733 105.264 67.8599 105.264H73.1874C74.2726 105.264 75.0619 104.376 75.0619 103.389V98.0618ZM71.2142 101.416H69.7343V99.9363H71.2142V101.416Z" fill="#E64D4D"/>
<path d="M47.7335 109.605H42.406C41.3208 109.605 40.5315 110.493 40.5315 111.479V116.807C40.5315 117.892 41.4194 118.681 42.406 118.681H47.7335C48.8187 118.681 49.608 117.793 49.608 116.807V111.479C49.608 110.493 48.7201 109.605 47.7335 109.605ZM45.7603 114.932H44.2805V113.452H45.7603V114.932Z" fill="#E64D4D"/>
<path d="M60.3619 109.605H55.0344C53.9492 109.605 53.1599 110.493 53.1599 111.479V116.807C53.1599 117.892 54.0478 118.681 55.0344 118.681H60.3619C61.4472 118.681 62.2364 117.793 62.2364 116.807V111.479C62.3351 110.493 61.4472 109.605 60.3619 109.605ZM58.4874 114.932H57.0076V113.452H58.4874V114.932Z" fill="#E64D4D"/>
<path d="M67.8598 118.78H73.1873C74.2725 118.78 75.0618 117.892 75.0618 116.905V111.578C75.0618 110.493 74.1739 109.703 73.1873 109.703H67.8598C66.7745 109.703 65.9853 110.591 65.9853 111.578V116.905C65.8866 117.892 66.7745 118.78 67.8598 118.78ZM69.7343 113.452H71.2141V114.932H69.7343V113.452Z" fill="#E64D4D"/>
</g>
<defs>
<clipPath id="clip0">
<rect width="147" height="147" fill="white"/>
</clipPath>
</defs>
</svg>
