<svg width="147" height="147" viewBox="0 0 147 147" fill="none" xmlns="http://www.w3.org/2000/svg">
<g clip-path="url(#clip0)">
<g clip-path="url(#clip1)">
<path d="M51.112 139.95C49.4629 139.237 47.6496 138.774 46.2004 137.811C43.0878 135.672 41.7456 132.507 41.7385 128.771V112.287L40.2607 114.176C41.9384 117.235 41.7313 118.575 38.99 121.306L22.3418 137.868C19.7432 140.464 17.4016 140.471 14.8101 137.868C12.7541 135.822 10.6909 133.776 8.64911 131.715C6.4503 129.491 6.4503 126.974 8.64911 124.75C14.3603 119.017 20.0906 113.292 25.8399 107.574C28.2671 105.15 29.9948 104.936 32.8076 106.668L40.8604 98.4405C39.6039 95.4388 37.9477 92.4086 37.0339 89.1717C34.6209 80.6159 35.9559 72.4665 40.8461 64.9801C41.4291 64.144 41.7361 63.147 41.7242 62.1282C41.6742 57.3655 41.7242 52.6027 41.7242 47.8685V46.963C41.7885 45.6369 42.5381 44.8241 43.6732 44.8241C43.9453 44.8236 44.2145 44.8803 44.4633 44.9905C44.712 45.1006 44.9349 45.2617 45.1173 45.4634C45.2997 45.6651 45.4376 45.9028 45.5221 46.1611C45.6067 46.4195 45.6358 46.6927 45.6078 46.963V59.2763C47.1784 58.1569 48.6491 57.1872 50.0055 56.0821C50.3339 55.8111 50.391 55.0839 50.391 54.5634V22.6146C50.391 20.604 51.0621 19.9623 53.0538 19.9623H69.4736V15.5917C69.0595 15.5917 68.6455 15.5347 68.2314 15.5347H53.1466C48.4492 15.5347 45.615 18.3866 45.6007 23.0424V38.7281C45.6093 38.9828 45.5675 39.2367 45.4778 39.4752C45.388 39.7138 45.2521 39.9324 45.0777 40.1185C44.9033 40.3045 44.6939 40.4544 44.4615 40.5596C44.2291 40.6648 43.9782 40.7233 43.7231 40.7315H43.6517C43.3996 40.7334 43.1495 40.6857 42.9157 40.591C42.682 40.4964 42.4693 40.3567 42.2896 40.1799C42.11 40.0031 41.9669 39.7927 41.8687 39.5608C41.7705 39.3288 41.7189 39.0797 41.7171 38.8279C41.7171 38.8279 41.7171 38.7637 41.7171 38.7352C41.6742 37.7869 41.7171 36.8315 41.7171 35.8833V23.0495C41.7171 16.2477 46.336 11.6775 53.1395 11.6418H69.5236V9.81657C69.5236 7.62771 70.1304 6.96463 72.2864 6.96463H109.474C111.33 6.96463 111.979 7.60632 112.036 9.43868V11.6703H128.777C134.189 11.7131 138.251 14.8859 139.572 20.055C139.764 20.768 139.857 21.5594 140 22.3152V64.3812C139.322 66.0353 138.665 66.5202 137.551 66.3063C136.438 66.0924 136.002 65.3295 135.988 63.5542V23.0495C135.988 18.3367 133.132 15.5703 128.428 15.549H112.158V19.9766H128.206C130.641 19.9766 131.212 20.5327 131.212 22.9355V128.757C131.212 131.081 130.641 131.651 128.278 131.651H53.4108C51.0621 131.651 50.4624 131.074 50.4624 128.757V107.724C50.4624 106.918 49.0346 105.542 48.3635 105.677C47.6924 105.813 45.6721 108.429 45.6721 109.242V128.721C45.6721 133.22 48.5705 136.079 53.0967 136.093H63.484C64.5834 136.093 65.6257 136.2 66.054 137.398C66.4823 138.596 65.7613 139.337 64.9118 140L51.112 139.95ZM54.4388 127.63H127.257V23.9622H112.122V25.2313C112.122 28.3613 111.737 28.7249 108.595 28.7249H72.0222C70.2803 28.6821 69.5878 28.0119 69.5593 26.258V23.9123H54.4531V53.8576C54.9457 53.7078 55.3169 53.608 55.6739 53.4868C64.0836 50.6919 72.2007 51.298 80.0322 55.526C80.6397 55.8368 81.3128 55.9981 81.9954 55.9965C92.0519 56.025 102.106 56.025 112.158 55.9965C112.548 55.9866 112.939 55.9985 113.329 56.0322C113.783 56.072 114.207 56.2741 114.524 56.6013C114.84 56.9286 115.028 57.3591 115.052 57.8135C115.077 58.268 114.936 58.716 114.656 59.0751C114.376 59.4342 113.976 59.6803 113.529 59.7682C113.02 59.8616 112.503 59.9046 111.986 59.8965H86.5501C88.3991 62.6344 90.1768 65.3295 92.0329 67.9604C92.2044 68.1276 92.4078 68.2585 92.631 68.3455C92.8542 68.4325 93.0927 68.4737 93.3322 68.4666H114.135C114.612 68.4463 115.089 68.463 115.563 68.5165C116.002 68.5503 116.412 68.7468 116.714 69.0674C117.015 69.388 117.185 69.8095 117.191 70.2491C117.259 70.6853 117.157 71.1309 116.906 71.4943C116.655 71.8577 116.274 72.1112 115.842 72.2026C115.337 72.3229 114.818 72.3756 114.3 72.3595H95.1883C94.7814 72.3595 94.3745 72.3952 93.8534 72.4237L94.4245 74.4628H103.327C103.585 74.4513 103.842 74.4907 104.085 74.5788C104.328 74.6669 104.55 74.8018 104.741 74.976C104.931 75.1502 105.085 75.3601 105.194 75.5938C105.303 75.8275 105.365 76.0804 105.376 76.338C105.376 76.338 105.376 76.338 105.376 76.3879C105.363 76.9142 105.141 77.4139 104.76 77.7775C104.378 78.141 103.868 78.3387 103.341 78.3272H95.0456V85.9205H114.178C114.656 85.9061 115.134 85.9372 115.606 86.0131C116.066 86.0865 116.483 86.3263 116.778 86.6868C117.072 87.0474 117.224 87.5036 117.204 87.9685C117.184 88.4335 116.993 88.8747 116.668 89.2083C116.343 89.5419 115.907 89.7446 115.442 89.7777C115.009 89.7997 114.575 89.7997 114.142 89.7777H95.6667C93.6892 89.7777 93.6749 89.7777 93.4322 91.9166H98.8792C100.478 91.9166 102.085 91.9166 103.684 91.9879C103.901 91.982 104.117 92.0221 104.317 92.1056C104.518 92.1892 104.698 92.3143 104.847 92.4726C104.995 92.631 105.108 92.8191 105.179 93.0243C105.249 93.2296 105.275 93.4475 105.254 93.6635C105.18 94.3968 104.846 95.0794 104.312 95.5885C103.948 95.9307 103.17 95.8951 102.577 95.9022C99.329 95.9022 96.0736 95.9593 92.8253 95.9022C92.3602 95.848 91.8897 95.9396 91.479 96.1645C91.0684 96.3893 90.738 96.7362 90.5337 97.1571C87.2348 102.37 82.3855 106.421 76.6655 108.743C70.9454 111.065 64.6413 111.541 58.6366 110.105C57.2087 109.756 55.8452 109.306 54.3531 108.886L54.4388 127.63ZM91.2476 81.393C91.2575 76.3165 89.7598 71.351 86.9441 67.1246C84.1283 62.8981 80.1208 59.6005 75.4285 57.6487C70.7361 55.6969 65.5696 55.1785 60.5823 56.1592C55.595 57.1399 51.0108 59.5756 47.4096 63.1583C43.8083 66.7409 41.3517 71.3097 40.3503 76.2867C39.349 81.2638 39.8479 86.4256 41.7839 91.1195C43.72 95.8134 47.0063 99.8285 51.2272 102.657C55.4481 105.486 60.4141 107.001 65.4972 107.011H65.6756C72.465 106.99 78.9691 104.282 83.7625 99.4797C88.556 94.6777 91.2476 88.1736 91.2476 81.393V81.393ZM73.5214 24.7464H108.11V10.9573H73.5214V24.7464ZM30.2018 124.564C32.4078 122.347 34.6851 120.051 36.9768 117.762C37.5836 117.156 37.2909 116.714 36.8054 116.237C35.2919 114.749 33.788 113.252 32.2936 111.745C29.7592 109.199 29.7663 109.199 27.182 111.745L26.6323 112.294L22.2846 116.629L30.2018 124.564ZM15.7239 123.138C14.3389 124.564 12.8683 126.033 11.4405 127.495C11.3153 127.58 11.213 127.695 11.1422 127.829C11.0715 127.964 11.0346 128.113 11.0346 128.265C11.0346 128.416 11.0715 128.566 11.1422 128.7C11.213 128.834 11.3153 128.949 11.4405 129.035C13.5822 131.174 15.7239 133.312 17.8656 135.416C18.0572 135.534 18.2758 135.601 18.5007 135.611C18.7256 135.621 18.9493 135.573 19.1506 135.473C20.7355 134.047 22.2347 132.5 23.6553 131.095L15.7239 123.138ZM35.8988 109.784L36.9482 110.911L44.9796 102.932L44.0016 101.791L35.8988 109.784ZM27.2605 127.887L19.0078 119.616C19.0578 120.08 19.0078 120.522 19.1506 120.7C21.4446 123.043 23.7672 125.363 26.1183 127.659C26.2825 127.887 26.7251 127.801 27.2605 127.887Z" fill="#E64D4D"/>
<path d="M104.541 118.618H93.1182C90.9765 118.618 90.3768 118.004 90.3696 115.944V105.962C90.3696 104.144 91.0478 103.424 92.8683 103.417H116.142C118.133 103.417 118.754 104.13 118.762 106.098V115.837C118.762 118.026 118.162 118.632 116.006 118.632L104.541 118.618ZM94.3175 114.625H114.807V107.402H94.3246L94.3175 114.625Z" fill="#E64D4D"/>
<path d="M90.7692 42.3284H73.3572C72.9248 42.3549 72.4909 42.3286 72.065 42.2499C71.6409 42.1549 71.2618 41.9185 70.9902 41.5796C70.7186 41.2407 70.5706 40.8196 70.5706 40.3855C70.5706 39.9514 70.7186 39.5302 70.9902 39.1914C71.2618 38.8525 71.6409 38.6161 72.065 38.521C72.5357 38.435 73.0151 38.4063 73.4928 38.4355H108.039C108.386 38.418 108.734 38.418 109.081 38.4355C109.58 38.4465 110.055 38.6503 110.406 39.004C110.758 39.3577 110.958 39.8337 110.966 40.332C110.971 40.5811 110.928 40.8288 110.837 41.0611C110.747 41.2934 110.612 41.5056 110.44 41.6857C110.267 41.8658 110.061 42.0102 109.833 42.1107C109.605 42.2112 109.359 42.2658 109.109 42.2713C108.331 42.3355 107.553 42.2713 106.768 42.2713H90.7692V42.3284Z" fill="#E64D4D"/>
<path d="M91.0333 47.8397H84.4155C82.8663 47.8397 82.0239 47.1267 82.0453 45.879C82.0667 44.6313 82.8734 43.9753 84.3512 43.9611C88.7631 43.9278 93.175 43.9278 97.587 43.9611C99.079 43.9611 99.9999 44.7881 99.9785 45.9503C99.9571 47.1125 99.0576 47.8397 97.5227 47.854H91.0333V47.8397Z" fill="#E64D4D"/>
<path d="M112.515 78.3839C111.651 78.3839 110.787 78.4196 109.923 78.3839C109.663 78.3945 109.402 78.3535 109.158 78.2635C108.913 78.1735 108.688 78.0361 108.496 77.8593C108.305 77.6825 108.15 77.4697 108.041 77.2331C107.932 76.9964 107.87 76.7406 107.86 76.4803C107.86 75.9634 108.065 75.4676 108.431 75.1014C108.796 74.7352 109.292 74.5286 109.809 74.5267H109.859C111.63 74.4697 113.429 74.4768 115.17 74.5267C115.674 74.4954 116.169 74.6647 116.548 74.9975C116.927 75.3302 117.158 75.7994 117.191 76.302C117.191 76.3448 117.191 76.39 117.191 76.4375C117.191 77.5783 116.406 78.334 115.092 78.4053H112.522L112.515 78.3839Z" fill="#E64D4D"/>
<path d="M112.665 92.1017C113.614 92.1017 114.564 92.0447 115.52 92.1017C115.743 92.1045 115.964 92.1512 116.169 92.2391C116.374 92.3269 116.56 92.4543 116.715 92.6138C116.871 92.7734 116.994 92.962 117.077 93.169C117.16 93.376 117.201 93.5972 117.198 93.82C117.198 93.82 117.198 93.8628 117.198 93.8842C117.231 94.1035 117.221 94.3272 117.167 94.5423C117.113 94.7575 117.017 94.9598 116.884 95.1375C116.751 95.3153 116.584 95.4649 116.393 95.5778C116.202 95.6906 115.99 95.7645 115.77 95.795H115.52C113.543 95.8877 111.558 95.8806 109.581 95.795C109.339 95.7958 109.099 95.7451 108.878 95.6464C108.657 95.5477 108.46 95.4032 108.299 95.2225C108.139 95.0418 108.018 94.829 107.946 94.5982C107.874 94.3675 107.852 94.1241 107.882 93.8842C107.87 93.6538 107.904 93.4234 107.982 93.2062C108.06 92.989 108.179 92.7892 108.335 92.6183C108.49 92.4475 108.677 92.3088 108.886 92.2104C109.095 92.112 109.321 92.0557 109.552 92.0447H109.673C110.659 91.9948 111.658 92.0447 112.643 92.0447L112.665 92.1017Z" fill="#E64D4D"/>
<path d="M65.5472 59.6824C69.841 59.6824 74.0383 60.954 77.6085 63.3364C81.1786 65.7188 83.9612 69.1051 85.6044 73.0669C87.2476 77.0288 87.6775 81.3883 86.8398 85.5941C86.0021 89.8 83.9345 93.6633 80.8983 96.6956C77.8621 99.7278 73.9938 101.793 69.7825 102.629C65.5713 103.466 61.2061 103.037 57.2392 101.396C53.2723 99.7546 49.8817 96.9755 47.4962 93.41C45.1107 89.8444 43.8374 85.6525 43.8374 81.3642V81.3072C43.8712 75.5725 46.1712 70.0831 50.2369 66.0334C54.3026 61.9836 59.805 59.7011 65.5472 59.6824V59.6824ZM65.5472 63.5824C62.0257 63.5909 58.5859 64.642 55.6627 66.6029C52.7394 68.5639 50.464 71.3465 49.1243 74.5989C47.7845 77.8513 47.4406 81.4275 48.1359 84.8752C48.8312 88.3228 50.5345 91.4872 53.0305 93.968C55.5266 96.4488 58.7031 98.1348 62.1585 98.8126C65.614 99.4904 69.193 99.1297 72.4432 97.776C75.6933 96.4223 78.4685 94.1365 80.4179 91.2076C82.3673 88.2787 83.4032 84.8383 83.3947 81.3214V81.3214C83.359 76.613 81.4645 72.1087 78.1227 68.7873C74.7809 65.4658 70.2618 63.5954 65.5472 63.5824V63.5824Z" fill="#E64D4D"/>
<path d="M80.2677 13.1887C81.4898 13.1715 82.6691 13.638 83.5479 14.4863C84.4267 15.3346 84.9337 16.4957 84.9581 17.7161C84.9733 18.3304 84.8671 18.9416 84.6457 19.5149C84.4243 20.0882 84.0919 20.6123 83.6676 21.0572C83.2433 21.5022 82.7354 21.8592 82.1728 22.1081C81.6103 22.3569 81.0042 22.4926 80.3891 22.5074C79.1429 22.5 77.9494 22.0043 77.0655 21.1268C76.1816 20.2494 75.678 19.0605 75.6631 17.816C75.6795 16.5987 76.169 15.4356 77.0283 14.5721C77.8875 13.7087 79.0491 13.2126 80.2677 13.1887V13.1887ZM80.4034 16.8249C80.0322 17.2456 79.6324 17.5379 79.6895 17.709C79.7325 17.875 79.8109 18.0297 79.9194 18.1626C80.0278 18.2955 80.1637 18.4034 80.3177 18.479C80.4462 18.5361 80.9745 18.1439 80.9888 17.93C81.0031 17.7161 80.6747 17.3383 80.3963 16.8249H80.4034Z" fill="#E64D4D"/>
<path d="M96.9588 19.7553H91.1191C89.7484 19.7553 88.9345 19.0423 88.8774 17.9158C88.8203 16.7893 89.6841 15.9052 91.0834 15.8909C94.9765 15.8481 98.8697 15.8481 102.763 15.8909C103.034 15.8594 103.309 15.8862 103.569 15.9693C103.829 16.0524 104.069 16.1899 104.272 16.3728C104.474 16.5557 104.636 16.7797 104.745 17.0297C104.854 17.2798 104.908 17.5503 104.905 17.8231C104.905 18.9354 104.076 19.741 102.641 19.7624H96.9302L96.9588 19.7553Z" fill="#E64D4D"/>
</g>
</g>
<defs>
<clipPath id="clip0">
<rect width="147" height="147" fill="white"/>
</clipPath>
<clipPath id="clip1">
<rect width="133" height="133" fill="white" transform="translate(7 7)"/>
</clipPath>
</defs>
</svg>
